<?xml version="1.0" encoding="utf-8"?>
<!-- Generator: Adobe Illustrator 23.0.3, SVG Export Plug-In . SVG Version: 6.00 Build 0)  -->
<svg version="1.1" id="Layer_1" xmlns="http://www.w3.org/2000/svg" xmlns:xlink="http://www.w3.org/1999/xlink" x="0px" y="0px"
	 viewBox="0 0 267.19 215.12" style="enable-background:new 0 0 267.19 215.12;" xml:space="preserve">
<style type="text/css">
	.st0{fill:#1B1464;}
	.st1{fill:#29ABE2;}
</style>
<path class="st0" d="M0.86,120.35l29.32,24.78l-1.96,20.11c-0.11,1.12,0.57,2.17,1.64,2.53l37.39,12.61l1.31,23.15
	c0.05,0.81,0.49,1.54,1.19,1.95l15.83,9.3c0.24,0.14,0.5,0.24,0.76,0.29c0.82,0.16,1.69-0.12,2.27-0.77l42.95-48.53l37.62,7.31
	c0.68,0.13,1.39-0.03,1.94-0.46l34.77-26.87l27.36-0.73c0.93-0.02,1.77-0.58,2.15-1.44l25.84-58.25c0.35-0.8,0.25-1.73-0.27-2.43
	l-54.31-72.79c-0.43-0.57-1.09-0.93-1.81-0.97L93,2.97l-0.03,0c-0.1,0-0.2,0-0.3,0.01l-0.09,0C92.45,3,92.33,3.02,92.2,3.06l-0.01,0
	l-0.08,0.03L91.83,3.2l-0.11,0.06L91.49,3.4l-0.04,0.03L23.82,52.52l-0.05,0.04l-0.15,0.13L23.5,52.8l-0.05,0.04l-0.08,0.1
	l-0.1,0.12l-0.11,0.17l-0.07,0.12L23,53.57l-0.04,0.09L0.14,117.69C-0.2,118.64,0.09,119.7,0.86,120.35z M120.7,120.11l16.2,0.98
	c0.43,4,2.59,7.61,5.86,9.89l-11.58,25.23L120.7,120.11z M58.61,66.96c0.57,2.33,2.44,4.25,4.95,4.73c0.49,0.09,0.97,0.12,1.45,0.11
	l11.4,20.53c-1.08,1.24-1.86,2.76-2.2,4.49c-0.26,1.36-0.22,2.7,0.06,3.97l-19.64,7.17c-1.15-1.46-2.8-2.54-4.76-2.92
	c-0.74-0.14-1.47-0.17-2.19-0.11L29.31,58.22L58.61,66.96z M48.62,116.06c-0.29,0.03-0.59,0.02-0.89-0.04
	c-0.44-0.09-0.84-0.26-1.19-0.5c-1.01-0.69-1.57-1.94-1.32-3.22l0.06-0.23c0.14-0.53,0.42-0.99,0.78-1.36
	c0.72-0.74,1.79-1.12,2.88-0.91c0.13,0.03,0.26,0.06,0.38,0.1c0.12,0.04,0.24,0.09,0.36,0.14c0.85,0.4,1.48,1.16,1.72,2.06
	c0.12,0.45,0.15,0.93,0.05,1.41c-0.06,0.31-0.17,0.6-0.31,0.87C50.64,115.33,49.69,115.97,48.62,116.06z M72.46,131.86
	c0.46-1.64,1.42-3.03,2.68-4.03c0.94-0.75,2.06-1.29,3.25-1.55c1.01-0.22,2.09-0.24,3.17-0.03c0.58,0.11,1.13,0.29,1.65,0.52
	c1.06,0.46,1.98,1.15,2.73,1.99c1.09,1.22,1.79,2.76,1.97,4.42c0.08,0.76,0.05,1.54-0.1,2.32l-0.03,0.14
	c-0.36,1.68-1.23,3.12-2.42,4.19c-0.11,0.1-0.21,0.2-0.33,0.29c-1.75,1.42-4.09,2.08-6.47,1.62c-0.94-0.18-1.79-0.53-2.57-1
	c-1.15-0.7-2.1-1.67-2.76-2.82c-0.81-1.4-1.19-3.04-1.02-4.73c0.02-0.23,0.05-0.47,0.1-0.71C72.35,132.27,72.4,132.07,72.46,131.86z
	 M118.07,115.1l-25.33-13.02c0.1-0.28,0.2-0.56,0.28-0.85l5.29-0.68c1.07,1.13,2.49,1.95,4.13,2.27c3.79,0.74,7.48-1.44,8.76-4.95
	l38.36-10.37c0.86,1.76,2.28,3.22,4.08,4.11l-2.75,14.17c-6.34-0.11-12.08,4.18-13.65,10.47L118.07,115.1z M148.95,128.47
	c-1.58-0.31-2.98-1.02-4.12-1.99c-1.53-1.31-2.59-3.1-2.99-5.08c-0.22-1.12-0.24-2.29-0.01-3.48c0.09-0.47,0.23-0.91,0.38-1.35
	c1.21-3.33,4.26-5.62,7.73-5.9c0.8-0.06,1.62-0.03,2.44,0.13s1.59,0.44,2.31,0.8c1.32,0.66,2.44,1.63,3.27,2.8
	c0.95,1.32,1.53,2.88,1.66,4.55c0.05,0.6,0.03,1.21-0.05,1.83c-0.02,0.19-0.05,0.39-0.08,0.59c-0.29,1.47-0.92,2.78-1.79,3.88
	c-1.97,2.47-5.18,3.82-8.49,3.28C149.13,128.49,149.04,128.48,148.95,128.47z M124.03,41.87c1.05-0.33,2.2-0.41,3.36-0.18
	c0.49,0.09,0.95,0.24,1.39,0.43c1.56,0.66,2.78,1.87,3.5,3.34c0.29,0.59,0.49,1.22,0.6,1.88c0.13,0.79,0.14,1.62-0.02,2.46
	c-0.12,0.64-0.34,1.23-0.62,1.79c-0.09,0.17-0.18,0.34-0.28,0.51c-0.77,1.26-1.92,2.23-3.27,2.78c-0.97,0.4-2.04,0.58-3.14,0.5
	c-0.27-0.02-0.54-0.05-0.81-0.1c-1.42-0.28-2.64-0.97-3.59-1.92c-1.32-1.33-2.07-3.17-2-5.12c0.01-0.35,0.04-0.71,0.11-1.07
	C119.78,44.57,121.67,42.6,124.03,41.87z M114.51,46.3c-0.86,4.56,1.04,9.01,4.54,11.62l-13.67,29.67c-1.4-0.27-2.78-0.13-4.03,0.31
	L89.41,64.44L92.15,37L114.51,46.3z M78.89,99.1c-0.04-0.44-0.02-0.9,0.07-1.36c0.04-0.19,0.09-0.37,0.15-0.55
	c0.41-1.28,1.32-2.29,2.47-2.86c0.39-0.19,0.81-0.33,1.25-0.42c0.58-0.11,1.19-0.12,1.81,0c0.66,0.13,1.26,0.38,1.78,0.74
	c0.83,0.56,1.46,1.38,1.82,2.31c0.31,0.81,0.4,1.71,0.23,2.62c-0.32,1.65-1.45,2.93-2.89,3.54c-0.27,0.11-0.56,0.2-0.85,0.27
	c-0.62,0.13-1.27,0.15-1.93,0.02c-0.3-0.06-0.59-0.15-0.87-0.26c-0.42-0.17-0.8-0.39-1.15-0.66C79.7,101.68,79.01,100.45,78.89,99.1
	z M88.52,73.37l8.93,17.56c-0.55,0.83-0.95,1.77-1.15,2.8c-0.15,0.75-0.17,1.5-0.1,2.22l-3.12,0.4c-0.77-3.1-3.05-5.7-6.17-6.8
	L88.52,73.37z M101.06,94.65c0.22-1.13,1.06-1.98,2.1-2.26c0.14-0.04,0.28-0.07,0.42-0.09c0.29-0.03,0.6-0.03,0.9,0.03
	c1.58,0.31,2.62,1.85,2.31,3.43c-0.12,0.64-0.45,1.18-0.89,1.59c-0.66,0.61-1.59,0.91-2.53,0.72c-0.95-0.18-1.7-0.81-2.08-1.62
	C101.03,95.91,100.93,95.28,101.06,94.65z M150.35,78.25c-0.74,1.03-1.29,2.23-1.55,3.56c-0.06,0.31-0.1,0.62-0.13,0.93
	l-37.35,10.09c-0.35-1.08-0.93-2.06-1.7-2.89l13.83-30c0.12,0.03,0.25,0.06,0.37,0.08c2.96,0.58,5.88-0.02,8.28-1.46L150.35,78.25z
	 M160.42,86.72c-0.31,0.26-0.65,0.48-1.02,0.65c-0.77,0.34-1.64,0.47-2.52,0.3c-0.88-0.17-1.65-0.61-2.23-1.22
	c-0.08-0.08-0.15-0.16-0.22-0.25c-0.76-0.94-1.12-2.19-0.88-3.47c0.41-2.1,2.32-3.53,4.4-3.39c0.18,0.01,0.36,0.03,0.53,0.06
	c1.42,0.28,2.54,1.25,3.07,2.49c0.32,0.75,0.42,1.59,0.26,2.44C161.63,85.3,161.12,86.13,160.42,86.72z M111.8,117.32l-21.3,9.41
	c-1.6-2.31-3.96-4.09-6.8-4.94l1.35-13.56c1.81-0.26,3.49-1.02,4.87-2.17L111.8,117.32z M63.3,65.19c0.16-0.81,0.95-1.34,1.76-1.19
	c0.68,0.13,1.16,0.71,1.21,1.38c0.01,0.12,0.01,0.25-0.02,0.38c-0.16,0.81-0.95,1.34-1.76,1.19c-0.22-0.04-0.41-0.13-0.58-0.25
	C63.44,66.36,63.18,65.78,63.3,65.19z M69.43,27.55l18.05,7.51l-5.39,54.08c-0.58,0.1-1.14,0.25-1.68,0.44L69.41,69.77
	c0.78-0.84,1.34-1.89,1.58-3.09c0.56-2.89-0.95-5.71-3.49-6.92L69.43,27.55z M94.67,11.69l22.46,29.15
	c-0.27,0.31-0.52,0.64-0.76,0.98l-23.72-9.86L94.67,11.69z M135.74,41.81l27.15-28.56l25.21,41.93c-0.72,0.73-1.32,1.59-1.78,2.54
	l-48.51-9.43C137.79,45.94,137.04,43.69,135.74,41.81z M195.85,57.22c0.87,0.17,1.63,0.57,2.25,1.12c1.2,1.08,1.82,2.73,1.49,4.42
	c-0.24,1.22-0.93,2.24-1.86,2.92c-1.03,0.75-2.34,1.09-3.68,0.83c-0.4-0.08-0.78-0.21-1.14-0.38c-1.13-0.54-1.99-1.51-2.41-2.66
	c-0.28-0.78-0.37-1.64-0.2-2.5c0.33-1.69,1.53-2.99,3.04-3.54c0.5-0.18,1.03-0.28,1.58-0.28C195.24,57.14,195.54,57.16,195.85,57.22
	z M193.39,71.3l1.98,21.62c-1.81,0.62-3.42,1.72-4.65,3.2L166.69,84.4c0.44-4.58-2.67-8.85-7.28-9.75
	c-1.84-0.36-3.67-0.13-5.28,0.56l-18.47-19.94c0.49-0.69,0.91-1.43,1.24-2.22l48.51,9.43c0.27,4.24,3.36,7.94,7.72,8.79L193.39,71.3
	z M193.2,102.71c0-0.22,0.02-0.44,0.04-0.67c0.02-0.13,0.03-0.26,0.06-0.39c0.26-1.36,1.01-2.5,2.03-3.29
	c0.16-0.13,0.33-0.24,0.51-0.35c1.13-0.69,2.51-0.98,3.91-0.71c0.32,0.06,0.62,0.15,0.91,0.27c0.8,0.3,1.49,0.78,2.05,1.38
	c1.12,1.21,1.69,2.9,1.41,4.63l-0.02,0.17c-0.08,0.39-0.19,0.75-0.34,1.1c-0.67,1.58-2.05,2.73-3.67,3.16
	c-0.77,0.2-1.6,0.25-2.44,0.09c-1.1-0.21-2.06-0.75-2.81-1.48C193.81,105.6,193.2,104.2,193.2,102.71z M188.55,100.72
	c-0.2,1.02-0.23,2.03-0.13,3.01l-25.75,9.01c-1.55-2.7-4-4.86-7.02-6.03l2.75-14.17c2.62-0.21,5-1.55,6.54-3.62l23.67,11.54
	L188.55,100.72z M126.67,158.04l-34.58-19.91c0.19-0.55,0.35-1.12,0.46-1.71c0.35-1.8,0.3-3.58-0.09-5.26l23.41-10.34L126.67,158.04
	z M82.29,146.52l16.57,42.89l-26.48-12.17l7.17-30.53C80.48,146.75,81.4,146.68,82.29,146.52z M70.97,125.07l-14.95-9.91
	c0.07-0.24,0.13-0.48,0.18-0.73c0.13-0.66,0.16-1.31,0.13-1.95l20.18-7.37c1,1.12,2.27,2.01,3.73,2.57l-1.36,13.62
	C75.86,121.6,73.06,122.95,70.97,125.07z M40.47,111.38l0,0.01l-34.45,4.23l19.33-54.25l17.85,45.39
	C41.83,107.91,40.84,109.5,40.47,111.38z M30.62,53.56l33.87-24.59L62.67,59.5c-1.35,0.48-2.52,1.41-3.29,2.64L30.62,53.56z
	 M72.13,23.43l17.79-12.92l-1.94,19.51L72.13,23.43z M157.97,11.41l-25.73,27.06c-1.17-0.73-2.5-1.26-3.93-1.54
	c-2.59-0.5-5.14-0.11-7.35,0.95L98.01,8.1L157.97,11.41z M167.76,11.95l34.06,1.88l-7.48,38.49c-0.71,0.05-1.41,0.17-2.08,0.37
	L167.76,11.95z M255.04,83.05L207.6,97.46c-1.45-2.47-3.9-4.33-6.93-4.92c-0.16-0.03-0.32-0.04-0.48-0.07l-1.98-21.62
	c3.06-1.11,5.48-3.74,6.14-7.16c0.85-4.36-1.43-8.6-5.26-10.44l6.97-35.85L255.04,83.05z M232.53,138.14l-25.44-29.43
	c0.84-1.17,1.46-2.53,1.75-4.04c0.17-0.87,0.21-1.73,0.16-2.58l45.67-13.87L232.53,138.14z M205.52,140.93l-41.37-18.17
	c0.04-0.16,0.08-0.33,0.11-0.49c0.33-1.69,0.33-3.37,0.05-4.97l25.71-9c1.47,2.28,3.83,3.99,6.7,4.55c2.37,0.46,4.71,0.06,6.71-0.97
	l24.59,28.46L205.52,140.93z M134.15,161.35l13-28.33c0.29,0.08,0.58,0.15,0.87,0.2c5.67,1.1,11.22-1.45,14.22-6l38.09,16.73
	l-31.3,24.19L134.15,161.35z M126.89,163.76l-22.8,25.76l-17.28-44.74c1.07-0.67,2.03-1.49,2.86-2.45L126.89,163.76z M72.21,182.49
	l27.08,12.44L86.31,209.6l-12.99-7.63L72.21,182.49z M34.95,146.1l33.39-7.13c1.24,2.9,3.54,5.31,6.5,6.64l-7.02,29.87L33.23,163.8
	L34.95,146.1z M8.21,120.23l32.83-4.03c1.04,2.29,3.12,4.06,5.77,4.57c2.39,0.46,4.74-0.19,6.51-1.6l14.98,9.93
	c-0.32,0.78-0.57,1.6-0.74,2.46c-0.17,0.9-0.25,1.79-0.23,2.67l-33.95,7.25L8.21,120.23z"/>
<path class="st1" d="M3.36,117.32l29.7,24.8l-1.97,20.11c-0.11,1.12,0.58,2.17,1.66,2.53l37.86,12.64l1.34,23.15
	c0.05,0.81,0.5,1.54,1.21,1.95l16.03,9.31c0.25,0.14,0.51,0.24,0.77,0.29c0.83,0.16,1.71-0.11,2.3-0.77l43.45-48.5l38.1,7.34
	c0.69,0.13,1.41-0.03,1.97-0.46l35.19-26.84l27.7-0.71c0.94-0.02,1.79-0.58,2.17-1.44l26.13-58.24c0.36-0.8,0.25-1.73-0.28-2.43
	L211.67,7.23c-0.43-0.58-1.1-0.93-1.83-0.97L96.58,0l-0.04,0c-0.1,0-0.21,0-0.31,0.01l-0.09,0c-0.13,0.02-0.25,0.04-0.38,0.07
	l-0.01,0l-0.08,0.03l-0.29,0.11L95.27,0.3l-0.23,0.13L95,0.46L26.56,49.51l-0.05,0.04l-0.15,0.13l-0.12,0.11l-0.05,0.04l-0.08,0.1
	l-0.1,0.12l-0.11,0.17l-0.07,0.12l-0.09,0.21l-0.04,0.09L2.63,114.66C2.29,115.61,2.58,116.67,3.36,117.32z M124.7,117.17
	l16.41,0.99c0.44,4,2.63,7.62,5.93,9.9l-11.71,25.23L124.7,117.17z M61.8,63.97c0.58,2.33,2.47,4.25,5.01,4.74
	c0.49,0.09,0.98,0.13,1.46,0.11l11.55,20.54c-1.09,1.24-1.88,2.76-2.22,4.49c-0.27,1.36-0.22,2.7,0.07,3.97l-19.88,7.15
	c-1.16-1.46-2.83-2.54-4.82-2.92c-0.75-0.14-1.49-0.17-2.22-0.11L32.13,55.21L61.8,63.97z M51.72,113.07
	c-0.29,0.03-0.6,0.01-0.9-0.04c-0.45-0.09-0.85-0.26-1.2-0.5c-1.02-0.69-1.59-1.94-1.34-3.22l0.06-0.23
	c0.15-0.53,0.42-0.99,0.79-1.36c0.73-0.74,1.81-1.12,2.92-0.91c0.13,0.03,0.26,0.06,0.39,0.1c0.13,0.04,0.25,0.09,0.37,0.14
	c0.87,0.4,1.5,1.16,1.74,2.06c0.12,0.45,0.15,0.93,0.05,1.41c-0.06,0.31-0.17,0.6-0.31,0.87C53.77,112.34,52.8,112.97,51.72,113.07z
	 M75.86,128.88c0.46-1.64,1.43-3.03,2.71-4.03c0.96-0.75,2.08-1.29,3.29-1.55c1.03-0.22,2.11-0.24,3.21-0.03
	c0.59,0.11,1.14,0.29,1.67,0.52c1.07,0.46,2.01,1.15,2.76,1.99c1.1,1.22,1.81,2.76,1.99,4.42c0.08,0.76,0.05,1.54-0.1,2.32
	l-0.04,0.14c-0.36,1.68-1.25,3.12-2.45,4.19c-0.11,0.1-0.22,0.2-0.33,0.29c-1.77,1.41-4.14,2.08-6.55,1.61
	c-0.95-0.18-1.82-0.53-2.6-1c-1.17-0.7-2.12-1.67-2.79-2.82c-0.82-1.4-1.21-3.04-1.03-4.73c0.02-0.23,0.06-0.47,0.1-0.71
	C75.75,129.29,75.8,129.09,75.86,128.88z M122.03,112.16L96.38,99.12c0.11-0.28,0.2-0.56,0.28-0.85l5.36-0.67
	c1.09,1.13,2.52,1.95,4.18,2.27c3.84,0.74,7.57-1.43,8.87-4.95l38.83-10.34c0.87,1.76,2.31,3.22,4.13,4.12l-2.78,14.17
	c-6.42-0.11-12.22,4.17-13.81,10.46L122.03,112.16z M153.3,125.54c-1.6-0.31-3.01-1.02-4.17-2c-1.54-1.31-2.62-3.1-3.03-5.08
	c-0.23-1.12-0.25-2.29-0.01-3.48c0.09-0.47,0.23-0.91,0.39-1.35c1.22-3.33,4.31-5.61,7.82-5.89c0.81-0.06,1.64-0.03,2.47,0.13
	c0.83,0.16,1.62,0.44,2.34,0.8c1.34,0.66,2.47,1.63,3.32,2.8c0.96,1.32,1.56,2.89,1.69,4.55c0.05,0.6,0.03,1.21-0.05,1.83
	c-0.03,0.19-0.05,0.39-0.08,0.59c-0.29,1.47-0.93,2.78-1.81,3.88c-1.99,2.47-5.24,3.82-8.59,3.27
	C153.49,125.56,153.4,125.56,153.3,125.54z M128.02,38.92c1.07-0.33,2.23-0.41,3.4-0.18c0.49,0.1,0.96,0.24,1.41,0.43
	c1.58,0.66,2.82,1.87,3.55,3.34c0.29,0.59,0.5,1.22,0.61,1.88c0.14,0.79,0.14,1.62-0.02,2.46c-0.12,0.64-0.34,1.23-0.62,1.78
	c-0.09,0.17-0.18,0.34-0.29,0.51c-0.78,1.26-1.94,2.23-3.31,2.78c-0.98,0.4-2.07,0.58-3.18,0.5c-0.27-0.02-0.54-0.05-0.82-0.1
	c-1.43-0.28-2.68-0.97-3.64-1.92c-1.33-1.33-2.1-3.17-2.02-5.12c0.01-0.35,0.04-0.71,0.12-1.07
	C123.71,41.62,125.63,39.65,128.02,38.92z M118.39,43.34c-0.87,4.56,1.06,9.01,4.6,11.62l-13.83,29.66
	c-1.42-0.27-2.81-0.13-4.08,0.31L92.99,61.47l2.75-27.44L118.39,43.34z M82.35,96.13c-0.04-0.44-0.02-0.9,0.07-1.36
	c0.04-0.19,0.09-0.37,0.15-0.55c0.41-1.28,1.34-2.29,2.5-2.86c0.4-0.19,0.82-0.33,1.26-0.42c0.59-0.11,1.21-0.12,1.83,0
	c0.67,0.13,1.27,0.39,1.8,0.74c0.84,0.56,1.48,1.38,1.84,2.31c0.31,0.81,0.41,1.71,0.23,2.62c-0.32,1.65-1.46,2.93-2.92,3.54
	c-0.28,0.11-0.56,0.2-0.86,0.27c-0.63,0.13-1.29,0.15-1.95,0.02c-0.31-0.06-0.6-0.15-0.88-0.26c-0.42-0.17-0.81-0.39-1.16-0.66
	C83.17,98.71,82.47,97.48,82.35,96.13z M92.09,70.4l9.05,17.56c-0.55,0.83-0.96,1.77-1.16,2.8c-0.15,0.75-0.17,1.5-0.1,2.22
	l-3.16,0.4c-0.78-3.1-3.1-5.7-6.25-6.8L92.09,70.4z M104.79,91.69c0.22-1.13,1.08-1.98,2.13-2.26c0.14-0.04,0.28-0.07,0.43-0.08
	c0.3-0.03,0.6-0.03,0.91,0.03c1.6,0.31,2.65,1.85,2.34,3.43c-0.12,0.64-0.45,1.18-0.9,1.59c-0.67,0.61-1.61,0.9-2.57,0.72
	c-0.96-0.18-1.72-0.81-2.11-1.62C104.77,92.95,104.67,92.32,104.79,91.69z M154.69,75.32c-0.75,1.03-1.3,2.23-1.56,3.55
	c-0.06,0.31-0.1,0.62-0.13,0.93l-37.81,10.07c-0.35-1.08-0.95-2.06-1.72-2.89l13.98-29.99c0.13,0.03,0.25,0.06,0.38,0.08
	c3,0.58,5.95-0.02,8.39-1.46L154.69,75.32z M164.89,83.8c-0.31,0.26-0.66,0.48-1.03,0.65c-0.77,0.34-1.66,0.47-2.55,0.29
	c-0.9-0.17-1.67-0.61-2.26-1.22c-0.08-0.08-0.16-0.16-0.23-0.25c-0.77-0.94-1.14-2.19-0.89-3.47c0.41-2.1,2.35-3.53,4.45-3.39
	c0.18,0.01,0.36,0.03,0.54,0.07c1.44,0.28,2.57,1.25,3.11,2.49c0.32,0.75,0.43,1.59,0.26,2.44C166.11,82.38,165.6,83.2,164.89,83.8z
	 M115.69,114.37l-21.56,9.39c-1.62-2.31-4.01-4.09-6.89-4.94l1.36-13.55c1.83-0.26,3.54-1.01,4.92-2.16L115.69,114.37z M66.54,62.2
	c0.16-0.81,0.96-1.34,1.78-1.19c0.69,0.13,1.18,0.72,1.22,1.38c0.01,0.12,0.01,0.25-0.02,0.38c-0.16,0.81-0.96,1.34-1.78,1.19
	c-0.22-0.04-0.42-0.13-0.59-0.25C66.68,63.37,66.42,62.79,66.54,62.2z M72.73,24.56l18.28,7.52l-5.42,54.08
	c-0.58,0.1-1.15,0.25-1.7,0.44L72.74,66.79c0.79-0.84,1.36-1.89,1.6-3.09c0.57-2.89-0.96-5.71-3.54-6.92L72.73,24.56z M98.27,8.73
	l22.76,29.17c-0.27,0.31-0.53,0.64-0.77,0.98l-24.02-9.88L98.27,8.73z M139.88,38.87l27.47-28.54l25.55,41.95
	c-0.73,0.73-1.33,1.59-1.8,2.54l-49.12-9.46C141.95,43,141.19,40.75,139.88,38.87z M200.75,54.32c0.88,0.17,1.65,0.57,2.28,1.12
	c1.21,1.08,1.85,2.73,1.52,4.43c-0.24,1.22-0.94,2.24-1.89,2.92c-1.04,0.75-2.37,1.08-3.73,0.82c-0.41-0.08-0.79-0.21-1.15-0.38
	c-1.15-0.54-2.01-1.51-2.44-2.66c-0.29-0.78-0.37-1.64-0.2-2.5c0.33-1.69,1.55-2.99,3.08-3.54c0.51-0.18,1.04-0.28,1.6-0.28
	C200.12,54.23,200.43,54.26,200.75,54.32z M198.26,68.4l2.02,21.62c-1.83,0.62-3.47,1.72-4.7,3.2l-24.34-11.74
	c0.44-4.58-2.71-8.85-7.38-9.75c-1.87-0.36-3.71-0.13-5.34,0.56L139.8,52.33c0.49-0.69,0.92-1.43,1.26-2.22l49.12,9.46
	c0.28,4.24,3.4,7.94,7.82,8.79L198.26,68.4z M198.09,99.81c0-0.22,0.02-0.44,0.04-0.67c0.02-0.13,0.03-0.26,0.06-0.39
	c0.27-1.36,1.02-2.5,2.05-3.29c0.17-0.13,0.34-0.24,0.52-0.35c1.14-0.69,2.54-0.98,3.96-0.71c0.32,0.06,0.63,0.15,0.92,0.27
	c0.81,0.3,1.51,0.78,2.08,1.39c1.14,1.21,1.71,2.9,1.43,4.63l-0.02,0.17c-0.08,0.39-0.19,0.75-0.34,1.1
	c-0.68,1.58-2.07,2.73-3.71,3.16c-0.78,0.2-1.62,0.25-2.47,0.08c-1.12-0.22-2.09-0.75-2.84-1.49
	C198.71,102.7,198.09,101.3,198.09,99.81z M193.38,97.82c-0.2,1.02-0.24,2.03-0.13,3.01l-26.06,9c-1.57-2.7-4.05-4.87-7.11-6.03
	l2.78-14.17c2.65-0.21,5.06-1.55,6.62-3.62l23.98,11.56L193.38,97.82z M130.76,155.1l-35.02-19.94c0.19-0.55,0.35-1.12,0.46-1.71
	c0.35-1.8,0.3-3.58-0.09-5.26l23.69-10.32L130.76,155.1z M85.83,143.55l16.8,42.9l-26.82-12.18l7.24-30.53
	C83.99,143.78,84.93,143.71,85.83,143.55z M74.35,122.09l-15.14-9.92c0.07-0.24,0.13-0.48,0.18-0.73c0.13-0.66,0.16-1.31,0.13-1.95
	l20.43-7.35c1.02,1.12,2.3,2.01,3.77,2.57l-1.37,13.62C79.3,118.62,76.47,119.98,74.35,122.09z M43.46,108.38l0,0.01L8.58,112.6
	l19.54-54.24l18.1,45.41C44.84,104.91,43.83,106.5,43.46,108.38z M33.46,50.55l34.28-24.56L65.9,56.51
	c-1.37,0.48-2.55,1.41-3.33,2.64L33.46,50.55z M75.46,20.45L93.47,7.54l-1.96,19.51L75.46,20.45z M162.36,8.48l-26.03,27.05
	c-1.19-0.73-2.53-1.26-3.98-1.54c-2.62-0.5-5.2-0.12-7.44,0.95L101.65,5.13L162.36,8.48z M172.28,9.03l34.49,1.91l-7.55,38.49
	c-0.72,0.05-1.43,0.17-2.11,0.36L172.28,9.03z M260.69,80.19l-48.02,14.38c-1.47-2.47-3.95-4.33-7.02-4.92
	c-0.16-0.03-0.32-0.05-0.49-0.07l-2.02-21.62c3.09-1.11,5.54-3.74,6.21-7.16c0.86-4.36-1.45-8.61-5.33-10.45l7.03-35.84
	L260.69,80.19z M237.93,135.27l-25.77-29.45c0.85-1.17,1.48-2.53,1.77-4.04c0.17-0.87,0.21-1.73,0.16-2.58l46.23-13.85
	L237.93,135.27z M210.59,138.04l-41.9-18.19c0.04-0.16,0.08-0.33,0.11-0.49c0.33-1.69,0.33-3.37,0.05-4.97l26.03-8.99
	c1.49,2.28,3.88,3.99,6.79,4.55c2.4,0.46,4.77,0.06,6.79-0.97l24.92,28.47L210.59,138.04z M138.34,158.41l13.15-28.33
	c0.29,0.08,0.58,0.15,0.88,0.2c5.74,1.11,11.36-1.44,14.39-5.99l38.58,16.75l-31.68,24.17L138.34,158.41z M130.99,160.81
	l-23.06,25.74L90.4,141.8c1.08-0.67,2.05-1.49,2.89-2.45L130.99,160.81z M75.65,179.52l27.42,12.46l-13.14,14.66l-13.16-7.64
	L75.65,179.52z M37.9,143.09l33.8-7.11c1.26,2.9,3.58,5.31,6.59,6.64l-7.08,29.86l-35.03-11.7L37.9,143.09z M10.81,117.21
	l33.23-4.01c1.05,2.29,3.16,4.06,5.84,4.58c2.42,0.47,4.79-0.19,6.59-1.59l15.17,9.94c-0.33,0.78-0.58,1.6-0.75,2.46
	c-0.18,0.9-0.25,1.79-0.23,2.67l-34.37,7.23L10.81,117.21z"/>
</svg>
