<svg id="Layer_1" data-name="Layer 1" xmlns="http://www.w3.org/2000/svg" viewBox="0 0 300 280"><defs><style>.cls-1{fill:#231f20;}.cls-2{fill:#29abe2;}.cls-3{fill:#fff;}</style></defs><title>heart</title><rect class="cls-1" x="40" width="20" height="20"/><rect class="cls-1" x="60" width="20" height="20"/><rect class="cls-1" x="80" width="20" height="20"/><rect class="cls-1" x="100" width="20" height="20"/><rect class="cls-1" x="180" width="20" height="20"/><rect class="cls-1" x="200" width="20" height="20"/><rect class="cls-1" x="220" width="20" height="20"/><rect class="cls-1" x="240" width="20" height="20"/><rect class="cls-1" x="20" y="20" width="20" height="20"/><rect class="cls-2" x="40" y="20" width="20" height="20"/><rect class="cls-2" x="60" y="20" width="20" height="20"/><rect class="cls-2" x="80" y="20" width="20" height="20"/><rect class="cls-2" x="100" y="20" width="20" height="20"/><rect class="cls-1" x="120" y="20" width="20" height="20"/><rect class="cls-1" x="160" y="20" width="20" height="20"/><rect class="cls-2" x="180" y="20" width="20" height="20"/><rect class="cls-2" x="200" y="20" width="20" height="20"/><rect class="cls-2" x="220" y="20" width="20" height="20"/><rect class="cls-2" x="240" y="20" width="20" height="20"/><rect class="cls-1" x="260" y="20" width="20" height="20"/><rect class="cls-1" y="40" width="20" height="20"/><rect class="cls-2" x="20" y="40" width="20" height="20"/><rect class="cls-2" x="40" y="40" width="20" height="20"/><rect class="cls-3" x="60" y="40" width="20" height="20"/><rect class="cls-2" x="80" y="40" width="20" height="20"/><rect class="cls-2" x="100" y="40" width="20" height="20"/><rect class="cls-2" x="120" y="40" width="20" height="20"/><rect class="cls-1" x="140" y="40" width="20" height="20"/><rect class="cls-2" x="160" y="40" width="20" height="20"/><rect class="cls-2" x="180" y="40" width="20" height="20"/><rect class="cls-2" x="200" y="40" width="20" height="20"/><rect class="cls-2" x="220" y="40" width="20" height="20"/><rect class="cls-2" x="240" y="40" width="20" height="20"/><rect class="cls-2" x="260" y="40" width="20" height="20"/><rect class="cls-1" x="280" y="40" width="20" height="20"/><rect class="cls-1" y="60" width="20" height="20"/><rect class="cls-2" x="20" y="60" width="20" height="20"/><rect class="cls-3" x="40" y="60" width="20" height="20"/><rect class="cls-2" x="60" y="60" width="20" height="20"/><rect class="cls-2" x="80" y="60" width="20" height="20"/><rect class="cls-2" x="100" y="60" width="20" height="20"/><rect class="cls-2" x="120" y="60" width="20" height="20"/><rect class="cls-1" x="140" y="60" width="20" height="20"/><rect class="cls-2" x="160" y="60" width="20" height="20"/><rect class="cls-2" x="180" y="60" width="20" height="20"/><rect class="cls-2" x="200" y="60" width="20" height="20"/><rect class="cls-2" x="220" y="60" width="20" height="20"/><rect class="cls-2" x="240" y="60" width="20" height="20"/><rect class="cls-2" x="260" y="60" width="20" height="20"/><rect class="cls-1" x="280" y="60" width="20" height="20"/><rect class="cls-1" y="80" width="20" height="20"/><rect class="cls-2" x="20" y="80" width="20" height="20"/><rect class="cls-3" x="40" y="80" width="20" height="20"/><rect class="cls-2" x="60" y="80" width="20" height="20"/><rect class="cls-2" x="80" y="80" width="20" height="20"/><rect class="cls-2" x="100" y="80" width="20" height="20"/><rect class="cls-2" x="120" y="80" width="20" height="20"/><rect class="cls-2" x="140" y="80" width="20" height="20"/><rect class="cls-2" x="160" y="80" width="20" height="20"/><rect class="cls-2" x="180" y="80" width="20" height="20"/><rect class="cls-2" x="200" y="80" width="20" height="20"/><rect class="cls-2" x="220" y="80" width="20" height="20"/><rect class="cls-2" x="240" y="80" width="20" height="20"/><rect class="cls-2" x="260" y="80" width="20" height="20"/><rect class="cls-1" x="280" y="80" width="20" height="20"/><rect class="cls-1" y="100" width="20" height="20"/><rect class="cls-2" x="20" y="100" width="20" height="20"/><rect class="cls-2" x="40" y="100" width="20" height="20"/><rect class="cls-2" x="60" y="100" width="20" height="20"/><rect class="cls-2" x="80" y="100" width="20" height="20"/><rect class="cls-2" x="100" y="100" width="20" height="20"/><rect class="cls-2" x="120" y="100" width="20" height="20"/><rect class="cls-2" x="140" y="100" width="20" height="20"/><rect class="cls-2" x="160" y="100" width="20" height="20"/><rect class="cls-2" x="180" y="100" width="20" height="20"/><rect class="cls-2" x="200" y="100" width="20" height="20"/><rect class="cls-2" x="220" y="100" width="20" height="20"/><rect class="cls-2" x="240" y="100" width="20" height="20"/><rect class="cls-2" x="260" y="100" width="20" height="20"/><rect class="cls-1" x="280" y="100" width="20" height="20"/><rect class="cls-1" y="120" width="20" height="20"/><rect class="cls-2" x="20" y="120" width="20" height="20"/><rect class="cls-2" x="40" y="120" width="20" height="20"/><rect class="cls-2" x="60" y="120" width="20" height="20"/><rect class="cls-2" x="80" y="120" width="20" height="20"/><rect class="cls-2" x="100" y="120" width="20" height="20"/><rect class="cls-2" x="120" y="120" width="20" height="20"/><rect class="cls-2" x="140" y="120" width="20" height="20"/><rect class="cls-2" x="160" y="120" width="20" height="20"/><rect class="cls-2" x="180" y="120" width="20" height="20"/><rect class="cls-2" x="200" y="120" width="20" height="20"/><rect class="cls-2" x="220" y="120" width="20" height="20"/><rect class="cls-2" x="240" y="120" width="20" height="20"/><rect class="cls-2" x="260" y="120" width="20" height="20"/><rect class="cls-1" x="280" y="120" width="20" height="20"/><rect class="cls-1" x="20" y="140" width="20" height="20"/><rect class="cls-2" x="40" y="140" width="20" height="20"/><rect class="cls-2" x="60" y="140" width="20" height="20"/><rect class="cls-2" x="80" y="140" width="20" height="20"/><rect class="cls-2" x="100" y="140" width="20" height="20"/><rect class="cls-2" x="120" y="140" width="20" height="20"/><rect class="cls-2" x="140" y="140" width="20" height="20"/><rect class="cls-2" x="160" y="140" width="20" height="20"/><rect class="cls-2" x="180" y="140" width="20" height="20"/><rect class="cls-2" x="200" y="140" width="20" height="20"/><rect class="cls-2" x="220" y="140" width="20" height="20"/><rect class="cls-2" x="240" y="140" width="20" height="20"/><rect class="cls-1" x="260" y="140" width="20" height="20"/><rect class="cls-1" x="40" y="160" width="20" height="20"/><rect class="cls-2" x="60" y="160" width="20" height="20"/><rect class="cls-2" x="80" y="160" width="20" height="20"/><rect class="cls-2" x="100" y="160" width="20" height="20"/><rect class="cls-2" x="120" y="160" width="20" height="20"/><rect class="cls-2" x="140" y="160" width="20" height="20"/><rect class="cls-2" x="160" y="160" width="20" height="20"/><rect class="cls-2" x="180" y="160" width="20" height="20"/><rect class="cls-2" x="200" y="160" width="20" height="20"/><rect class="cls-2" x="220" y="160" width="20" height="20"/><rect class="cls-1" x="240" y="160" width="20" height="20"/><rect class="cls-1" x="60" y="180" width="20" height="20"/><rect class="cls-2" x="80" y="180" width="20" height="20"/><rect class="cls-2" x="100" y="180" width="20" height="20"/><rect class="cls-2" x="120" y="180" width="20" height="20"/><rect class="cls-2" x="140" y="180" width="20" height="20"/><rect class="cls-2" x="160" y="180" width="20" height="20"/><rect class="cls-2" x="180" y="180" width="20" height="20"/><rect class="cls-2" x="200" y="180" width="20" height="20"/><rect class="cls-1" x="220" y="180" width="20" height="20"/><rect class="cls-1" x="80" y="200" width="20" height="20"/><rect class="cls-2" x="100" y="200" width="20" height="20"/><rect class="cls-2" x="120" y="200" width="20" height="20"/><rect class="cls-2" x="140" y="200" width="20" height="20"/><rect class="cls-2" x="160" y="200" width="20" height="20"/><rect class="cls-2" x="180" y="200" width="20" height="20"/><rect class="cls-1" x="200" y="200" width="20" height="20"/><rect class="cls-1" x="100" y="220" width="20" height="20"/><rect class="cls-2" x="120" y="220" width="20" height="20"/><rect class="cls-2" x="140" y="220" width="20" height="20"/><rect class="cls-2" x="160" y="220" width="20" height="20"/><rect class="cls-1" x="180" y="220" width="20" height="20"/><rect class="cls-1" x="120" y="240" width="20" height="20"/><rect class="cls-2" x="140" y="240" width="20" height="20"/><rect class="cls-1" x="160" y="240" width="20" height="20"/><rect class="cls-1" x="140" y="260" width="20" height="20"/></svg>